<svg xmlns="http://www.w3.org/2000/svg" viewBox="0 0 480 270">
  <defs>
    <linearGradient id="projBg" x1="0%" y1="0%" x2="100%" y2="100%">
      <stop offset="0%" style="stop-color:#0a66c2"/>
      <stop offset="100%" style="stop-color:#004182"/>
    </linearGradient>
  </defs>
  <rect width="480" height="270" fill="url(#projBg)"/>
  <!-- Grid pattern -->
  <g stroke="rgba(255,255,255,0.05)" stroke-width="1">
    <line x1="0" y1="54" x2="480" y2="54"/>
    <line x1="0" y1="108" x2="480" y2="108"/>
    <line x1="0" y1="162" x2="480" y2="162"/>
    <line x1="0" y1="216" x2="480" y2="216"/>
    <line x1="96" y1="0" x2="96" y2="270"/>
    <line x1="192" y1="0" x2="192" y2="270"/>
    <line x1="288" y1="0" x2="288" y2="270"/>
    <line x1="384" y1="0" x2="384" y2="270"/>
  </g>
  <!-- Terminal window mock -->
  <rect x="140" y="60" width="200" height="140" rx="8" fill="rgba(0,0,0,0.4)"/>
  <rect x="140" y="60" width="200" height="24" rx="8" fill="rgba(0,0,0,0.6)"/>
  <circle cx="158" cy="72" r="4" fill="#ff5f57"/>
  <circle cx="172" cy="72" r="4" fill="#ffbd2e"/>
  <circle cx="186" cy="72" r="4" fill="#28c940"/>
  <!-- Code lines -->
  <rect x="152" y="97" width="80" height="6" rx="3" fill="rgba(0,180,216,0.7)"/>
  <rect x="152" y="111" width="120" height="6" rx="3" fill="rgba(255,255,255,0.35)"/>
  <rect x="162" y="125" width="100" height="6" rx="3" fill="rgba(255,255,255,0.25)"/>
  <rect x="162" y="139" width="70" height="6" rx="3" fill="rgba(0,180,216,0.5)"/>
  <rect x="152" y="153" width="90" height="6" rx="3" fill="rgba(255,255,255,0.3)"/>
  <rect x="152" y="167" width="50" height="6" rx="3" fill="rgba(255,200,0,0.6)"/>
  <!-- Label -->
  <text x="240" y="225" font-family="sans-serif" font-size="11" fill="rgba(255,255,255,0.5)" text-anchor="middle">Add project screenshot</text>
</svg>
